<svg id="Capa_1" data-name="Capa 1" xmlns="http://www.w3.org/2000/svg" xmlns:xlink="http://www.w3.org/1999/xlink" viewBox="0 0 64 64"><defs><style>.cls-1{fill:none;}.cls-2{clip-path:url(#clip-path);}.cls-3{fill:#fff;stroke:#1f2937;stroke-miterlimit:10;}.cls-4{clip-path:url(#clip-path-2);}</style><clipPath id="clip-path"><rect class="cls-1" x="19.13" y="18.01" width="50.58" height="41.38"/></clipPath><clipPath id="clip-path-2"><rect class="cls-1" x="-4.28" y="2.01" width="50.02" height="25.42"/></clipPath></defs><g class="cls-2"><path class="cls-3" d="M25,21.06H42.84c9.16,0,15.37,5.15,15.37,13.35,0,9.36-7.09,13.66-15.59,13.66H34.33v16.1H25Zm9.33,19.59h7.11c4.32,0,7.37-1.66,7.37-6.06s-3.22-6.11-7.17-6.11H34.33Z"/></g><path class="cls-3" d="M25,34.89c0,10-3.23,14.5-12.72,14.5a27.82,27.82,0,0,1-5.87-.54V41.4a35,35,0,0,0,4.28.26c4.31,0,5-2.87,5-6.17v-30H25Z"/><path class="cls-3" d="M43.85,37.07c-1.69,7.8-7.56,13.48-18,13.48C12.56,50.55,6.3,41.17,6.3,29.28c0-11.46,6.46-21.73,20-21.73,11.13,0,16.53,6.53,17.55,13.52h-9c-.87-3.22-3.12-6.43-8.8-6.43-7.45,0-10.33,6.7-10.33,14.31,0,7.07,2.5,14.51,10.58,14.51,5.89,0,7.76-4,8.54-6.39Z"/><g class="cls-4"><path class="cls-3" d="M25,34.89c0,10-3.23,14.5-12.72,14.5a27.82,27.82,0,0,1-5.87-.54V41.4a35,35,0,0,0,4.28.26c4.31,0,5-2.87,5-6.17q0-4.1,0-8.22,0-11,0-21.81H25Z"/></g></svg>